<svg width="150" height="150" viewBox="0 0 150 150" fill="none" xmlns="http://www.w3.org/2000/svg">
<path d="M73.0689 90V62.908L62.7729 77.78H59.2369L48.9929 62.908V90H44.3129V55.42H49.4609L61.0049 72.112L72.5489 55.42H77.7489V90H73.0689ZM101.417 66.08C101.244 64.728 100.88 63.6187 100.325 62.752C99.7014 61.816 98.9214 61.14 97.9854 60.724C97.0841 60.2733 95.9228 60.048 94.5014 60.048C92.1441 60.048 90.4974 60.5507 89.5614 61.556C88.6601 62.4573 88.2094 63.7573 88.2094 65.456C88.2094 66.4267 88.3481 67.224 88.6254 67.848C88.9028 68.4373 89.3188 68.9227 89.8734 69.304C90.7054 69.8933 92.0748 70.2747 93.9814 70.448C95.9228 70.6213 97.5521 70.8987 98.8694 71.28C100.221 71.6267 101.4 72.112 102.405 72.736C104.936 74.3307 106.201 76.8267 106.201 80.224C106.201 81.5413 105.941 82.7893 105.421 83.968C104.901 85.1467 104.173 86.204 103.237 87.14C102.128 88.2147 100.811 89.012 99.2854 89.532C97.7948 90.052 96.2348 90.312 94.6054 90.312C90.9308 90.312 88.0014 89.272 85.8174 87.192C83.9454 85.32 82.8188 82.824 82.4374 79.704L82.5414 79.652H87.1174C87.3948 81.4893 88.0188 82.8587 88.9894 83.76C90.3414 85.008 92.1614 85.632 94.4494 85.632C96.6334 85.632 98.3668 85.1293 99.6494 84.124C100.932 83.1187 101.573 81.8187 101.573 80.224C101.573 79.496 101.469 78.872 101.261 78.352C101.088 77.7973 100.741 77.312 100.221 76.896C99.0428 75.9947 96.8414 75.4227 93.6174 75.18C90.3241 74.9027 87.8281 73.9493 86.1294 72.32C84.4308 70.6907 83.5814 68.4027 83.5814 65.456C83.5814 62.4747 84.5001 60.0653 86.3374 58.228C88.2788 56.2867 90.9828 55.316 94.4494 55.316C98.0548 55.316 100.863 56.408 102.873 58.592C104.641 60.4987 105.716 62.9947 106.097 66.08H101.417Z" fill="white"/>
</svg>
